<?xml version="1.0" encoding="utf-8"?>
<!-- Generator: Adobe Illustrator 16.0.0, SVG Export Plug-In . SVG Version: 6.00 Build 0)  -->
<!DOCTYPE svg PUBLIC "-//W3C//DTD SVG 1.1//EN" "http://www.w3.org/Graphics/SVG/1.1/DTD/svg11.dtd">
<svg version="1.1" id="Layer_1" xmlns="http://www.w3.org/2000/svg" xmlns:xlink="http://www.w3.org/1999/xlink" x="0px" y="0px"
	 width="121.5px" height="31.5px" viewBox="0 0 121.5 31.5" enable-background="new 0 0 121.5 31.5" xml:space="preserve">
<g>
	<path fill="#FFFFFF" d="M30.519,2.123C20.736,6.367,10.965,7.226,1.01,1.748c0.212,0.867,0.21,1.684,0.558,2.088
		C2.103,4.452,2.34,5.032,2.305,5.881C2.291,6.173,2.462,6.616,2.67,6.753C3.144,7.06,3.252,7.451,3.238,8.039
		C3.231,8.291,3.422,8.674,3.616,8.792c0.865,0.528,1.772,0.971,2.649,1.474c0.188,0.107,0.442,0.328,0.455,0.514
		c0.055,0.773,0.021,1.552,0.021,2.418c-1.476,0-2.858,0-4.261,0c0,0.688,0,1.283,0,1.909c0.356,0.017,0.657,0.036,1.038,0.058
		c0,0.573,0,1.087,0,1.66c1.112,0,2.135,0,3.236,0c0,8.086,0,3.282,0,11.321c0.789,0,1.502,0,2.291,0c0-8.065,0-3.264,0-11.279
		c4.602,0,9.126,0,13.708,0h0.399c0,8.014,0,3.214,0,11.279c0.788,0,1.501,0,2.292,0c0-8.043,0-3.235,0-11.321
		c1.104,0,2.125,0,3.233,0c0-0.573,0-1.087,0-1.66c0.381-0.021,0.685-0.041,1.039-0.058c0-0.626,0-1.221,0-1.909
		c-1.404,0-2.786,0-4.264,0c0-0.866-0.03-1.645,0.023-2.418c0.013-0.186,0.267-0.406,0.456-0.514
		c0.877-0.502,1.782-0.945,2.65-1.474c0.192-0.118,0.379-0.501,0.378-0.753c-0.013-0.588,0.094-0.979,0.566-1.286
		c0.208-0.135,0.381-0.58,0.368-0.872c-0.037-0.849,0.202-1.429,0.735-2.045c0.346-0.403,0.346-1.219,0.562-2.088L30.519,2.123z
		 M14.686,13.152c-1.893,0-3.732,0-5.598,0.003c0-0.646,0-1.247,0-1.938c1.887,0.262,3.726,0.509,5.598,0.765
		C14.686,12.366,14.686,12.754,14.686,13.152z M23.112,13.152h-5.598c0-0.398,0-0.786,0-1.171c1.874-0.256,3.713-0.508,5.598-0.765
		C23.112,11.908,23.112,12.504,23.112,13.152z"/>
</g>
<g>
	<path fill="#FFFFFF" d="M53.866,26.731c0.042-0.663,0.082-1.646,0.082-2.503V12.511h1.741V18.6h0.042
		c0.62-1.082,1.743-1.782,3.305-1.782c2.401,0,4.103,2.004,4.083,4.949c0,3.462-2.184,5.181-4.346,5.181
		c-1.4,0-2.521-0.534-3.243-1.816h-0.06l-0.082,1.601H53.866z M55.688,22.849c0,0.213,0.042,0.438,0.082,0.64
		c0.337,1.222,1.359,2.063,2.64,2.063c1.845,0,2.946-1.504,2.946-3.729c0-1.939-1.002-3.604-2.883-3.604
		c-1.205,0-2.325,0.824-2.685,2.164c-0.038,0.205-0.101,0.443-0.101,0.721V22.849z"/>
	<path fill="#FFFFFF" d="M73.456,24.085c0,1.001,0.02,1.888,0.082,2.646h-1.562l-0.103-1.583h-0.037
		c-0.463,0.78-1.485,1.799-3.207,1.799c-1.521,0-3.342-0.834-3.342-4.241v-5.664h1.759v5.363c0,1.843,0.564,3.086,2.163,3.086
		c1.182,0,2.005-0.826,2.322-1.604c0.103-0.261,0.164-0.58,0.164-0.9v-5.945h1.76V24.085z"/>
	<path fill="#FFFFFF" d="M76.147,24.928c0.519,0.342,1.441,0.699,2.322,0.699c1.281,0,1.881-0.638,1.881-1.44
		c0-0.841-0.499-1.3-1.8-1.781c-1.746-0.62-2.562-1.579-2.562-2.742c0-1.565,1.262-2.846,3.344-2.846
		c0.979,0,1.841,0.282,2.383,0.602l-0.443,1.279c-0.38-0.233-1.08-0.556-1.98-0.556c-1.04,0-1.62,0.597-1.62,1.32
		c0,0.799,0.58,1.162,1.84,1.641c1.683,0.641,2.543,1.484,2.543,2.924c0,1.701-1.321,2.901-3.626,2.901
		c-1.061,0-2.041-0.261-2.719-0.656L76.147,24.928z"/>
	<path fill="#FFFFFF" d="M84.32,12.511h1.764v6.048h0.037c0.281-0.498,0.721-0.937,1.263-1.238c0.523-0.3,1.143-0.503,1.804-0.503
		c1.301,0,3.382,0.805,3.382,4.144v5.771h-1.76v-5.567c0-1.562-0.582-2.883-2.243-2.883c-1.145,0-2.044,0.801-2.362,1.763
		c-0.099,0.237-0.12,0.499-0.12,0.843v5.845H84.32V12.511z"/>
	<path fill="#FFFFFF" d="M97.403,14.317c0.017,0.601-0.421,1.08-1.124,1.08c-0.619,0-1.06-0.479-1.06-1.08
		c0-0.625,0.461-1.104,1.104-1.104C96.982,13.213,97.403,13.692,97.403,14.317z M95.442,26.731v-9.689h1.762v9.689H95.442z"/>
	<path fill="#FFFFFF" d="M108.499,12.511v11.718c0,0.857,0.018,1.84,0.077,2.503h-1.58l-0.079-1.681h-0.044
		c-0.539,1.079-1.72,1.896-3.301,1.896c-2.343,0-4.147-1.982-4.147-4.92c-0.021-3.229,1.982-5.21,4.35-5.21
		c1.481,0,2.482,0.7,2.921,1.483h0.039v-5.79H108.499z M106.734,20.984c0-0.22-0.021-0.52-0.077-0.744
		c-0.261-1.121-1.225-2.037-2.545-2.037c-1.822,0-2.901,1.596-2.901,3.742c0,1.963,0.958,3.582,2.862,3.582
		c1.183,0,2.261-0.776,2.584-2.098c0.057-0.245,0.077-0.482,0.077-0.765V20.984z"/>
	<path fill="#FFFFFF" d="M120.2,21.804c0,3.581-2.485,5.144-4.829,5.144c-2.623,0-4.645-1.917-4.645-4.984
		c0-3.24,2.121-5.146,4.806-5.146C118.313,16.817,120.2,18.838,120.2,21.804z M112.512,21.909c0,2.118,1.219,3.718,2.94,3.718
		c1.683,0,2.942-1.579,2.942-3.763c0-1.644-0.82-3.722-2.899-3.722C113.41,18.143,112.512,20.061,112.512,21.909z"/>
</g>
</svg>
