<?xml version="1.0" encoding="utf-8"?>
<!-- Generator: Adobe Illustrator 16.0.0, SVG Export Plug-In . SVG Version: 6.00 Build 0)  -->
<!DOCTYPE svg PUBLIC "-//W3C//DTD SVG 1.1//EN" "http://www.w3.org/Graphics/SVG/1.1/DTD/svg11.dtd">
<svg version="1.1" id="Layer_1" xmlns="http://www.w3.org/2000/svg" xmlns:xlink="http://www.w3.org/1999/xlink" x="0px" y="0px"
	 width="98px" height="38px" viewBox="0 0 98 38" enable-background="new 0 0 98 38" xml:space="preserve">
<g id="Lkc8lC_1_">
	<g>
		<g>
			<path d="M-101.045-171.102c0.276,1.122,0.026,1.942-0.846,2.689c-0.333,0.285-0.375,1.013-0.389,1.545
				c-0.017,0.568-0.094,1.001-0.691,1.195c-0.582,0.191-0.774,0.618-0.68,1.198c0.104,0.634-0.147,1.008-0.756,1.249
				c-1.126,0.448-2.235,0.946-3.333,1.461c-0.247,0.117-0.585,0.378-0.603,0.595c-0.067,0.885-0.029,1.776-0.029,2.771
				c1.979,0,3.828,0,5.725,0c0,0.769,0,1.43,0,2.154c-0.429,0.033-0.834,0.062-1.351,0.103c0,0.583,0,1.175,0,1.868
				c-1.502,0-2.897,0-4.369,0c0,9.276,0,3.764,0,13.008c-1.046,0-2.015,0-3.065,0c0-9.205,0-3.691,0-12.931
				c-6.131,0-12.182,0-18.338,0c0,9.189,0,3.683,0,12.931c-1.057,0-2.01,0-3.065,0c0-9.218,0-3.708,0-12.979
				c-1.475,0-2.846,0-4.328,0c0-0.659,0-1.247,0-1.903c-0.509-0.027-0.914-0.045-1.388-0.069c0-0.715,0-1.397,0-2.188
				c1.877,0,3.726,0,5.7,0c0-0.992,0.04-1.885-0.029-2.771c-0.017-0.216-0.359-0.468-0.607-0.59
				c-1.174-0.575-2.385-1.083-3.544-1.687c-0.259-0.137-0.514-0.577-0.507-0.867c0.017-0.672-0.125-1.123-0.758-1.475
				c-0.276-0.154-0.508-0.664-0.491-0.999c0.047-0.972-0.271-1.637-0.982-2.343c-0.466-0.464-0.464-1.4-0.75-2.396
				C-127.2-165.252-114.131-166.237-101.045-171.102z M-122.226-158.457c0-0.455,0-0.902,0-1.341
				c-2.506-0.294-4.965-0.581-7.487-0.878c0,0.792,0,1.479,0,2.221C-127.217-158.457-124.76-158.457-122.226-158.457z
				 M-111.501-160.602c-2.541,0.286-5.023,0.566-7.521,0.848c0,0.426,0,0.826,0,1.287c2.521,0,4.995,0,7.521,0
				C-111.501-159.193-111.501-159.879-111.501-160.602z"/>
		</g>
	</g>
</g>
<g>
	<path fill="#FFFFFF" d="M-117.75-113.949v4.181h0.031c0.219-0.449,0.562-0.774,1.033-0.979s0.986-0.307,1.551-0.307
		c0.626,0,1.171,0.115,1.636,0.345s0.852,0.541,1.159,0.932c0.308,0.392,0.54,0.844,0.696,1.355
		c0.158,0.512,0.236,1.055,0.236,1.627c0,0.574-0.076,1.117-0.228,1.63c-0.151,0.511-0.381,0.958-0.688,1.338
		c-0.309,0.381-0.695,0.683-1.159,0.901c-0.465,0.219-1.006,0.328-1.621,0.328c-0.198,0-0.42-0.021-0.666-0.062
		c-0.245-0.042-0.488-0.108-0.729-0.203c-0.24-0.094-0.467-0.222-0.681-0.384s-0.396-0.362-0.541-0.604h-0.03v1.082h-1.331v-11.182
		H-117.75z M-112.966-107.991c-0.1-0.36-0.251-0.681-0.454-0.963c-0.204-0.282-0.465-0.506-0.783-0.674
		c-0.318-0.166-0.691-0.25-1.119-0.25c-0.449,0-0.832,0.089-1.145,0.266c-0.312,0.178-0.568,0.41-0.768,0.697
		c-0.198,0.286-0.342,0.614-0.431,0.979s-0.133,0.735-0.133,1.11c0,0.397,0.047,0.78,0.142,1.151
		c0.094,0.371,0.242,0.697,0.445,0.979c0.204,0.282,0.467,0.51,0.792,0.682c0.323,0.172,0.716,0.258,1.175,0.258
		s0.844-0.088,1.15-0.267c0.309-0.177,0.557-0.411,0.744-0.704s0.323-0.627,0.407-1.002c0.082-0.377,0.125-0.763,0.125-1.158
		C-112.817-107.262-112.866-107.631-112.966-107.991z"/>
	<path fill="#FFFFFF" d="M-104.393-102.768v-1.285h-0.031c-0.281,0.5-0.643,0.869-1.08,1.104s-0.955,0.353-1.551,0.353
		c-0.531,0-0.975-0.069-1.33-0.211c-0.355-0.143-0.643-0.343-0.861-0.604c-0.219-0.26-0.373-0.572-0.463-0.932
		c-0.088-0.36-0.133-0.76-0.133-1.198v-5.325h1.332v5.48c0,0.5,0.146,0.898,0.438,1.19c0.293,0.292,0.693,0.438,1.207,0.438
		c0.406,0,0.76-0.062,1.055-0.188c0.299-0.126,0.547-0.302,0.744-0.532c0.199-0.229,0.348-0.498,0.447-0.806
		c0.098-0.31,0.148-0.646,0.148-1.011v-4.572h1.33v8.098H-104.393z"/>
	<path fill="#FFFFFF" d="M-100.117-104.577c0.125,0.204,0.289,0.366,0.492,0.485c0.203,0.121,0.434,0.207,0.689,0.259
		c0.254,0.052,0.52,0.077,0.791,0.077c0.207,0,0.426-0.016,0.656-0.047c0.23-0.03,0.441-0.088,0.635-0.172
		c0.193-0.082,0.352-0.205,0.477-0.367s0.189-0.367,0.189-0.619c0-0.344-0.131-0.605-0.393-0.782
		c-0.262-0.179-0.588-0.321-0.979-0.431c-0.391-0.11-0.818-0.209-1.275-0.299c-0.461-0.088-0.885-0.213-1.275-0.375
		c-0.393-0.162-0.719-0.39-0.98-0.682c-0.26-0.292-0.391-0.699-0.391-1.221c0-0.408,0.09-0.757,0.273-1.05s0.416-0.53,0.705-0.713
		c0.287-0.182,0.611-0.317,0.971-0.406c0.359-0.088,0.717-0.133,1.072-0.133c0.459,0,0.883,0.039,1.27,0.117
		c0.385,0.078,0.729,0.215,1.025,0.407c0.299,0.193,0.535,0.454,0.713,0.782c0.176,0.329,0.281,0.739,0.312,1.229h-1.332
		c-0.02-0.261-0.088-0.478-0.203-0.649c-0.113-0.172-0.262-0.311-0.438-0.416c-0.18-0.104-0.375-0.18-0.588-0.227
		c-0.213-0.049-0.432-0.072-0.65-0.072c-0.197,0-0.396,0.017-0.602,0.048c-0.203,0.03-0.391,0.086-0.557,0.165
		c-0.168,0.078-0.303,0.183-0.408,0.312c-0.104,0.13-0.156,0.3-0.156,0.509c0,0.23,0.082,0.42,0.244,0.572
		c0.16,0.151,0.367,0.276,0.617,0.375c0.252,0.1,0.533,0.184,0.848,0.251c0.312,0.067,0.625,0.138,0.938,0.212
		c0.334,0.072,0.66,0.161,0.98,0.266c0.318,0.104,0.6,0.242,0.846,0.414c0.246,0.173,0.443,0.391,0.594,0.65
		c0.152,0.262,0.229,0.586,0.229,0.971c0,0.492-0.104,0.897-0.307,1.222c-0.201,0.323-0.469,0.585-0.797,0.782
		c-0.33,0.199-0.701,0.336-1.111,0.416c-0.412,0.078-0.822,0.117-1.23,0.117c-0.449,0-0.875-0.047-1.283-0.142
		c-0.406-0.093-0.768-0.248-1.082-0.462c-0.312-0.213-0.562-0.496-0.752-0.846c-0.188-0.35-0.291-0.774-0.311-1.275h1.33
		C-100.311-105.028-100.242-104.78-100.117-104.577z"/>
	<path fill="#FFFFFF" d="M-91.975-113.949v4.274h0.031c0.104-0.25,0.25-0.461,0.438-0.633c0.188-0.174,0.398-0.313,0.635-0.424
		c0.234-0.109,0.479-0.189,0.734-0.242s0.504-0.078,0.744-0.078c0.533,0,0.977,0.072,1.332,0.219
		c0.354,0.146,0.641,0.35,0.861,0.611c0.219,0.26,0.373,0.571,0.461,0.932c0.09,0.36,0.133,0.759,0.133,1.198v5.324h-1.33v-5.481
		c0-0.5-0.146-0.897-0.439-1.189c-0.291-0.292-0.693-0.439-1.205-0.439c-0.406,0-0.76,0.062-1.057,0.188s-0.545,0.304-0.744,0.532
		c-0.199,0.229-0.348,0.5-0.447,0.808s-0.148,0.644-0.148,1.01v4.572h-1.33v-11.182H-91.975z"/>
	<path fill="#FFFFFF" d="M-84.521-112.32v-1.629h1.332v1.629H-84.521z M-83.189-110.865v8.098h-1.332v-8.098H-83.189z"/>
	<path fill="#FFFFFF" d="M-75.219-102.768v-1.097h-0.031c-0.219,0.449-0.562,0.772-1.033,0.97c-0.471,0.199-0.986,0.299-1.551,0.299
		c-0.625,0-1.172-0.115-1.635-0.345c-0.465-0.229-0.852-0.538-1.16-0.924c-0.307-0.386-0.541-0.835-0.695-1.347
		c-0.156-0.512-0.234-1.055-0.234-1.629s0.074-1.117,0.227-1.629c0.15-0.512,0.381-0.958,0.688-1.339
		c0.309-0.381,0.695-0.684,1.16-0.908c0.465-0.224,1.004-0.336,1.621-0.336c0.209,0,0.434,0.021,0.672,0.062
		c0.242,0.042,0.48,0.111,0.721,0.211s0.467,0.23,0.682,0.393c0.215,0.16,0.395,0.361,0.541,0.603h0.031v-4.166h1.33v11.182H-75.219
		z M-80.004-105.643c0.102,0.361,0.25,0.682,0.455,0.963c0.203,0.282,0.465,0.508,0.783,0.674s0.691,0.25,1.121,0.25
		c0.447,0,0.83-0.088,1.143-0.267c0.312-0.177,0.568-0.409,0.768-0.696c0.197-0.287,0.34-0.613,0.43-0.979
		c0.088-0.365,0.133-0.735,0.133-1.112c0-0.396-0.047-0.779-0.141-1.15c-0.094-0.37-0.242-0.697-0.447-0.979
		c-0.203-0.282-0.467-0.509-0.791-0.682c-0.324-0.172-0.715-0.258-1.174-0.258c-0.449,0-0.83,0.089-1.143,0.266
		c-0.312,0.178-0.564,0.413-0.752,0.705s-0.324,0.626-0.406,1.002c-0.084,0.376-0.125,0.763-0.125,1.159
		C-80.152-106.369-80.102-106.002-80.004-105.643z"/>
	<path fill="#FFFFFF" d="M-72.025-108.477c0.168-0.517,0.418-0.965,0.752-1.347c0.334-0.381,0.746-0.682,1.238-0.9
		c0.49-0.22,1.055-0.33,1.689-0.33c0.648,0,1.213,0.109,1.699,0.33c0.486,0.219,0.895,0.52,1.229,0.9s0.584,0.83,0.752,1.347
		c0.168,0.518,0.25,1.073,0.25,1.668c0,0.594-0.082,1.148-0.25,1.659c-0.166,0.513-0.418,0.958-0.752,1.341
		c-0.334,0.381-0.742,0.678-1.229,0.893c-0.486,0.213-1.051,0.32-1.699,0.32c-0.637,0-1.201-0.107-1.689-0.32
		c-0.492-0.215-0.904-0.512-1.238-0.893c-0.334-0.382-0.584-0.828-0.752-1.341c-0.166-0.511-0.25-1.063-0.25-1.659
		C-72.275-107.403-72.191-107.959-72.025-108.477z M-70.67-105.501c0.129,0.382,0.311,0.7,0.539,0.956
		c0.23,0.255,0.498,0.451,0.807,0.587s0.635,0.204,0.979,0.204c0.346,0,0.672-0.068,0.98-0.204c0.307-0.136,0.576-0.332,0.807-0.587
		c0.229-0.256,0.41-0.574,0.541-0.956c0.131-0.38,0.195-0.816,0.195-1.308c0-0.49-0.064-0.926-0.195-1.308
		c-0.131-0.381-0.311-0.702-0.541-0.963c-0.23-0.262-0.5-0.459-0.807-0.596c-0.309-0.135-0.635-0.203-0.98-0.203
		c-0.344,0-0.67,0.068-0.979,0.203c-0.309,0.137-0.576,0.334-0.807,0.596c-0.229,0.261-0.41,0.582-0.539,0.963
		c-0.131,0.381-0.195,0.815-0.195,1.308S-70.801-105.881-70.67-105.501z"/>
</g>
<g>
	<path d="M-107.288-141.369c0.035-0.582,0.07-1.446,0.07-2.204v-10.319h1.535v5.362h0.035c0.547-0.953,1.535-1.569,2.911-1.569
		c2.117,0,3.617,1.764,3.598,4.356c0,3.052-1.922,4.568-3.828,4.568c-1.235,0-2.222-0.477-2.857-1.605h-0.053l-0.07,1.411H-107.288z
		 M-105.683-144.791c0,0.194,0.035,0.388,0.07,0.564c0.3,1.076,1.199,1.817,2.328,1.817c1.623,0,2.594-1.323,2.594-3.281
		c0-1.711-0.882-3.175-2.541-3.175c-1.059,0-2.046,0.723-2.363,1.904c-0.035,0.177-0.088,0.389-0.088,0.635V-144.791z"/>
	<path d="M-90.031-143.697c0,0.882,0.018,1.658,0.071,2.328h-1.376l-0.089-1.393h-0.034c-0.407,0.687-1.307,1.587-2.823,1.587
		c-1.342,0-2.946-0.74-2.946-3.739v-4.992h1.551v4.728c0,1.622,0.494,2.716,1.906,2.716c1.04,0,1.764-0.723,2.046-1.411
		c0.088-0.229,0.142-0.511,0.142-0.794v-5.238h1.552V-143.697z"/>
	<path d="M-87.662-142.957c0.459,0.301,1.27,0.618,2.047,0.618c1.129,0,1.657-0.564,1.657-1.27c0-0.741-0.44-1.147-1.587-1.57
		c-1.535-0.548-2.258-1.394-2.258-2.417c0-1.375,1.111-2.504,2.946-2.504c0.864,0,1.622,0.246,2.098,0.528l-0.388,1.129
		c-0.334-0.212-0.952-0.493-1.746-0.493c-0.916,0-1.428,0.529-1.428,1.164c0,0.705,0.512,1.022,1.621,1.445
		c1.482,0.564,2.241,1.307,2.241,2.576c0,1.499-1.164,2.558-3.193,2.558c-0.935,0-1.798-0.229-2.398-0.582L-87.662-142.957z"/>
	<path d="M-80.46-153.893h1.551v5.327h0.036c0.247-0.441,0.635-0.829,1.111-1.094c0.458-0.265,1.006-0.44,1.587-0.44
		c1.146,0,2.98,0.705,2.98,3.65v5.08h-1.551v-4.903c0-1.376-0.513-2.54-1.977-2.54c-1.006,0-1.8,0.705-2.081,1.552
		c-0.088,0.212-0.106,0.44-0.106,0.741v5.15h-1.551V-153.893z"/>
	<path d="M-68.938-152.306c0.018,0.529-0.37,0.953-0.988,0.953c-0.545,0-0.935-0.424-0.935-0.953c0-0.546,0.406-0.97,0.971-0.97
		C-69.308-153.276-68.938-152.852-68.938-152.306z M-70.665-141.369v-8.537h1.551v8.537H-70.665z"/>
	<path d="M-59.163-153.893v10.319c0,0.758,0.018,1.622,0.07,2.204h-1.394l-0.07-1.481h-0.036c-0.475,0.952-1.517,1.676-2.909,1.676
		c-2.064,0-3.651-1.746-3.651-4.339c-0.019-2.841,1.746-4.586,3.828-4.586c1.306,0,2.188,0.616,2.575,1.305h0.034v-5.098H-59.163z
		 M-60.716-146.432c0-0.193-0.018-0.459-0.07-0.652c-0.229-0.988-1.076-1.799-2.24-1.799c-1.604,0-2.557,1.41-2.557,3.299
		c0,1.729,0.846,3.156,2.521,3.156c1.042,0,1.994-0.688,2.275-1.852c0.053-0.212,0.07-0.424,0.07-0.67V-146.432z"/>
	<path d="M-48.856-145.708c0,3.157-2.188,4.533-4.251,4.533c-2.312,0-4.093-1.693-4.093-4.393c0-2.857,1.869-4.532,4.233-4.532
		C-50.516-150.1-48.856-148.318-48.856-145.708z M-55.63-145.62c0,1.87,1.076,3.281,2.593,3.281c1.481,0,2.592-1.394,2.592-3.316
		c0-1.446-0.722-3.28-2.557-3.28S-55.63-147.242-55.63-145.62z"/>
</g>
<g id="Lkc8lC_2_">
	<g>
		<g>
			<path fill="#FFFFFF" d="M27.507-54.405c0.237,1.122,0.022,1.942-0.725,2.689c-0.286,0.285-0.322,1.013-0.333,1.545
				c-0.015,0.568-0.08,1.001-0.593,1.195c-0.498,0.191-0.663,0.618-0.583,1.198c0.089,0.635-0.125,1.009-0.648,1.249
				c-0.966,0.448-1.916,0.946-2.858,1.462c-0.212,0.117-0.501,0.377-0.517,0.595c-0.058,0.885-0.024,1.776-0.024,2.771
				c1.696,0,3.281,0,4.907,0c0,0.769,0,1.43,0,2.154c-0.369,0.033-0.715,0.062-1.159,0.103c0,0.583,0,1.175,0,1.868
				c-1.288,0-2.483,0-3.746,0c0,9.276,0,3.764,0,13.008c-0.896,0-1.727,0-2.627,0c0-9.205,0-3.691,0-12.931
				c-5.255,0-10.442,0-15.719,0c0,9.189,0,3.683,0,12.931c-0.906,0-1.723,0-2.627,0c0-9.218,0-3.708,0-12.979
				c-1.265,0-2.439,0-3.71,0c0-0.659,0-1.247,0-1.903c-0.437-0.027-0.783-0.045-1.19-0.069c0-0.715,0-1.397,0-2.188
				c1.609,0,3.195,0,4.887,0c0-0.992,0.034-1.885-0.025-2.771c-0.014-0.215-0.308-0.468-0.521-0.59
				c-1.007-0.575-2.045-1.084-3.038-1.688c-0.222-0.137-0.44-0.576-0.436-0.867c0.015-0.672-0.107-1.123-0.649-1.474
				c-0.237-0.154-0.435-0.664-0.42-0.999c0.041-0.972-0.232-1.637-0.842-2.343c-0.4-0.464-0.398-1.4-0.643-2.396
				C5.086-48.556,16.29-49.541,27.507-54.405z M9.35-41.761c0-0.455,0-0.902,0-1.341c-2.148-0.294-4.256-0.581-6.417-0.878
				c0,0.792,0,1.479,0,2.221C5.072-41.761,7.178-41.761,9.35-41.761z M18.544-43.905c-2.178,0.286-4.306,0.566-6.447,0.848
				c0,0.426,0,0.826,0,1.287c2.161,0,4.282,0,6.447,0C18.544-42.497,18.544-43.183,18.544-43.905z"/>
		</g>
	</g>
</g>
<g>
	<path fill="#FFFFFF" d="M38.259,33.698c0.035-1.181,0.07-2.936,0.07-4.473V8.295h1.534v10.876h0.035
		c0.548-1.933,1.535-3.183,2.911-3.183c2.117,0,3.616,3.577,3.599,8.837c0,6.19-1.922,9.265-3.828,9.265
		c-1.234,0-2.223-0.967-2.857-3.257H39.67l-0.07,2.864H38.259z M39.863,26.758c0,0.394,0.035,0.784,0.07,1.145
		c0.301,2.183,1.199,3.685,2.328,3.685c1.623,0,2.595-2.683,2.595-6.654c0-3.47-0.882-6.439-2.541-6.439
		c-1.059,0-2.046,1.466-2.363,3.862c-0.035,0.359-0.089,0.789-0.089,1.288V26.758z"/>
	<path fill="#FFFFFF" d="M55.516,28.977c0,1.786,0.018,3.363,0.072,4.722h-1.377l-0.088-2.824h-0.035
		c-0.406,1.391-1.307,3.217-2.822,3.217c-1.342,0-2.946-1.502-2.946-7.583V16.381h1.551v9.589c0,3.291,0.495,5.509,1.907,5.509
		c1.039,0,1.764-1.466,2.045-2.864c0.088-0.463,0.143-1.034,0.143-1.608V16.381h1.551V28.977z"/>
	<path fill="#FFFFFF" d="M57.885,30.478c0.459,0.61,1.27,1.252,2.047,1.252c1.129,0,1.658-1.145,1.658-2.575
		c0-1.501-0.441-2.325-1.588-3.184c-1.535-1.111-2.258-2.826-2.258-4.902c0-2.789,1.111-5.079,2.947-5.079
		c0.863,0,1.621,0.499,2.098,1.072L62.4,19.352c-0.334-0.431-0.951-1.001-1.746-1.001c-0.916,0-1.428,1.073-1.428,2.361
		c0,1.431,0.512,2.073,1.621,2.932c1.482,1.145,2.242,2.65,2.242,5.226c0,3.039-1.164,5.186-3.193,5.186
		c-0.936,0-1.799-0.463-2.398-1.18L57.885,30.478z"/>
	<path fill="#FFFFFF" d="M65.088,8.295h1.551v10.806h0.035c0.248-0.896,0.635-1.682,1.111-2.219
		c0.459-0.537,1.006-0.894,1.588-0.894c1.146,0,2.98,1.43,2.98,7.405v10.304h-1.551v-9.946c0-2.791-0.514-5.152-1.977-5.152
		c-1.006,0-1.801,1.43-2.082,3.148c-0.088,0.43-0.105,0.893-0.105,1.504v10.446h-1.551V8.295z"/>
	<path fill="#FFFFFF" d="M76.609,11.514c0.018,1.074-0.369,1.934-0.988,1.934c-0.545,0-0.934-0.86-0.934-1.934
		c0-1.107,0.406-1.967,0.971-1.967C76.24,9.547,76.609,10.407,76.609,11.514z M74.883,33.698V16.381h1.551v17.317H74.883z"/>
	<path fill="#FFFFFF" d="M86.385,8.295v20.93c0,1.537,0.018,3.292,0.07,4.473h-1.395l-0.07-3.007h-0.035
		c-0.475,1.934-1.518,3.399-2.91,3.399c-2.064,0-3.65-3.542-3.65-8.799c-0.02-5.763,1.746-9.303,3.828-9.303
		c1.305,0,2.188,1.25,2.574,2.646h0.035V8.295H86.385z M84.832,23.43c0-0.393-0.018-0.932-0.07-1.323
		c-0.229-2.005-1.076-3.649-2.24-3.649c-1.605,0-2.557,2.861-2.557,6.692c0,3.506,0.846,6.401,2.521,6.401
		c1.041,0,1.994-1.395,2.275-3.755c0.053-0.431,0.07-0.86,0.07-1.359V23.43z"/>
	<path fill="#FFFFFF" d="M96.691,24.897c0,6.404-2.188,9.193-4.252,9.193c-2.311,0-4.092-3.435-4.092-8.908
		c0-5.796,1.869-9.193,4.232-9.193C95.031,15.989,96.691,19.603,96.691,24.897z M89.918,25.076c0,3.793,1.076,6.653,2.592,6.653
		c1.482,0,2.592-2.825,2.592-6.726c0-2.934-0.721-6.653-2.557-6.653C90.711,18.351,89.918,21.785,89.918,25.076z"/>
</g>
<g>
	<path fill="#FFFFFF" d="M35.562,4.298C24.345,9.163,13.141,10.147,1.724,3.866c0.245,0.995,0.243,1.931,0.643,2.396
		c0.609,0.706,0.882,1.371,0.842,2.343C3.194,8.94,3.392,9.449,3.629,9.604c0.542,0.352,0.665,0.802,0.649,1.474
		c-0.005,0.291,0.214,0.73,0.436,0.867c0.993,0.604,2.031,1.112,3.038,1.688c0.212,0.122,0.506,0.375,0.521,0.59
		c0.06,0.887,0.025,1.779,0.025,2.771c-1.692,0-3.278,0-4.887,0c0,0.791,0,1.474,0,2.188c0.407,0.024,0.753,0.042,1.19,0.069
		c0,0.656,0,1.245,0,1.903c1.271,0,2.445,0,3.71,0c0,9.271,0,3.762,0,12.98c0.904,0,1.721,0,2.627,0c0-9.248,0-3.742,0-12.932
		c5.277,0,10.464,0,15.719,0h0.458c0,9.189,0,3.683,0,12.932c0.906,0,1.723,0,2.627,0c0-9.219,0-3.709,0-12.98
		c1.265,0,2.439,0,3.71,0c0-0.659,0-1.247,0-1.903c0.437-0.027,0.783-0.045,1.19-0.069c0-0.715,0-1.397,0-2.188
		c-1.609,0-3.195,0-4.887,0c0-0.992-0.034-1.885,0.025-2.771c0.014-0.215,0.308-0.468,0.521-0.59
		c1.007-0.575,2.045-1.084,3.038-1.688c0.222-0.137,0.44-0.576,0.436-0.867c-0.015-0.672,0.107-1.123,0.649-1.474
		c0.237-0.154,0.435-0.664,0.42-0.999c-0.041-0.972,0.232-1.637,0.842-2.343c0.4-0.464,0.398-1.4,0.643-2.396L35.562,4.298z
		 M17.405,16.943c-2.171,0-4.278,0-6.417,0.002c0-0.742,0-1.429,0-2.221c2.162,0.297,4.27,0.584,6.417,0.878
		C17.405,16.041,17.405,16.488,17.405,16.943z M27.068,16.944l-6.417-0.002c0-0.455,0-0.902,0-1.341
		c2.148-0.294,4.256-0.581,6.417-0.878C27.068,15.516,27.068,16.202,27.068,16.944z"/>
</g>
</svg>
