<?xml version="1.0" encoding="utf-8"?>
<!-- Generator: Adobe Illustrator 16.0.0, SVG Export Plug-In . SVG Version: 6.00 Build 0)  -->
<!DOCTYPE svg PUBLIC "-//W3C//DTD SVG 1.1//EN" "http://www.w3.org/Graphics/SVG/1.1/DTD/svg11.dtd">
<svg version="1.1" id="Layer_1" xmlns="http://www.w3.org/2000/svg" xmlns:xlink="http://www.w3.org/1999/xlink" x="0px" y="0px"
	 width="21px" height="21px" viewBox="0 0 21 21" enable-background="new 0 0 21 21" xml:space="preserve">
<g>
	<path fill="#FFFFFF" d="M20.014,1.103C13.56,3.902,7.113,4.468,0.544,0.854c0.141,0.573,0.14,1.111,0.37,1.378
		c0.35,0.406,0.507,0.789,0.484,1.349C1.39,3.773,1.504,4.067,1.64,4.156c0.312,0.203,0.383,0.462,0.374,0.849
		c-0.002,0.167,0.124,0.42,0.251,0.499c0.572,0.347,1.169,0.639,1.748,0.971c0.122,0.07,0.291,0.216,0.3,0.339
		c0.035,0.51,0.014,1.023,0.014,1.595c-0.974,0-1.886,0-2.812,0c0,0.455,0,0.848,0,1.258C1.75,9.681,1.948,9.691,2.2,9.707
		c0,0.378,0,0.717,0,1.095c0.731,0,1.407,0,2.135,0c0,5.334,0,2.165,0,7.468c0.52,0,0.99,0,1.511,0c0-5.321,0-2.153,0-7.44
		c3.037,0,6.021,0,9.045,0h0.264c0,5.287,0,2.119,0,7.44c0.521,0,0.991,0,1.511,0c0-5.304,0-2.134,0-7.468c0.728,0,1.403,0,2.135,0
		c0-0.379,0-0.717,0-1.095c0.251-0.015,0.45-0.026,0.685-0.04c0-0.411,0-0.803,0-1.258c-0.926,0-1.838,0-2.812,0
		c0-0.571-0.02-1.084,0.015-1.595c0.008-0.124,0.177-0.269,0.299-0.339c0.58-0.33,1.177-0.624,1.748-0.971
		c0.128-0.079,0.253-0.332,0.251-0.499c-0.008-0.387,0.062-0.646,0.374-0.849c0.136-0.088,0.25-0.382,0.241-0.574
		c-0.023-0.56,0.134-0.942,0.485-1.349c0.23-0.267,0.229-0.806,0.37-1.378L20.014,1.103z M9.567,8.379c-1.249,0-2.461,0-3.692,0.001
		c0-0.427,0-0.823,0-1.277c1.244,0.171,2.457,0.336,3.692,0.504C9.567,7.86,9.567,8.117,9.567,8.379z M15.126,8.379l-3.692-0.001
		c0-0.262,0-0.519,0-0.771c1.236-0.17,2.449-0.335,3.692-0.506C15.126,7.557,15.126,7.953,15.126,8.379z"/>
</g>
</svg>
